<svg width="1781" height="391" viewBox="0 0 1781 391" fill="none" xmlns="http://www.w3.org/2000/svg">
<path d="M392.277 261.841L453.187 327.984H416.257L367.337 270.981V327.984H340V150H367.337V253.423L415.298 195.458H453.187L392.277 261.841Z" fill="white"/>
<path d="M463.669 261.12C463.669 247.811 466.387 236.026 471.822 225.763C477.418 215.501 484.931 207.564 494.364 201.952C503.956 196.18 514.507 193.293 526.018 193.293C536.409 193.293 545.442 195.378 553.115 199.547C560.949 203.556 567.184 208.606 571.82 214.7V195.458H599.397V327.984H571.82V308.261C567.184 314.515 560.869 319.726 552.875 323.895C544.882 328.064 535.769 330.149 525.538 330.149C514.187 330.149 503.796 327.262 494.364 321.49C484.931 315.557 477.418 307.38 471.822 296.957C466.387 286.374 463.669 274.428 463.669 261.12ZM571.82 261.601C571.82 252.461 569.901 244.524 566.065 237.789C562.388 231.055 557.512 225.924 551.437 222.396C545.362 218.869 538.807 217.105 531.773 217.105C524.739 217.105 518.184 218.869 512.109 222.396C506.034 225.763 501.078 230.814 497.241 237.549C493.564 244.123 491.726 251.98 491.726 261.12C491.726 270.259 493.564 278.277 497.241 285.172C501.078 292.067 506.034 297.358 512.109 301.046C518.344 304.574 524.898 306.337 531.773 306.337C538.807 306.337 545.362 304.574 551.437 301.046C557.512 297.518 562.388 292.387 566.065 285.653C569.901 278.758 571.82 270.741 571.82 261.601Z" fill="white"/>
<path d="M626.191 261.12C626.191 247.811 628.909 236.026 634.345 225.763C639.94 215.501 647.454 207.564 656.886 201.952C666.478 196.18 677.029 193.293 688.54 193.293C698.931 193.293 707.964 195.378 715.638 199.547C723.471 203.556 729.706 208.606 734.342 214.7V195.458H761.92V327.984H734.342V308.261C729.706 314.515 723.391 319.726 715.398 323.895C707.404 328.064 698.292 330.149 688.06 330.149C676.71 330.149 666.318 327.262 656.886 321.49C647.454 315.557 639.94 307.38 634.345 296.957C628.909 286.374 626.191 274.428 626.191 261.12ZM734.342 261.601C734.342 252.461 732.424 244.524 728.587 237.789C724.91 231.055 720.034 225.924 713.959 222.396C707.884 218.869 701.329 217.105 694.295 217.105C687.261 217.105 680.706 218.869 674.631 222.396C668.556 225.763 663.601 230.814 659.764 237.549C656.087 244.123 654.248 251.98 654.248 261.12C654.248 270.259 656.087 278.277 659.764 285.172C663.601 292.067 668.556 297.358 674.631 301.046C680.866 304.574 687.421 306.337 694.295 306.337C701.329 306.337 707.884 304.574 713.959 301.046C720.034 297.518 724.91 292.387 728.587 285.653C732.424 278.758 734.342 270.741 734.342 261.601Z" fill="white"/>
<path d="M825.164 214.7C829.16 207.965 834.436 202.754 840.991 199.066C847.705 195.218 855.619 193.293 864.731 193.293V221.675H857.777C847.066 221.675 838.912 224.401 833.317 229.852C827.882 235.304 825.164 244.764 825.164 258.234V327.984H797.826V195.458H825.164V214.7Z" fill="white"/>
<path d="M947.173 330.149C934.703 330.149 923.432 327.343 913.361 321.731C903.289 315.958 895.375 307.941 889.62 297.679C883.865 287.256 880.987 275.23 880.987 261.601C880.987 248.132 883.945 236.186 889.86 225.763C895.775 215.341 903.848 207.324 914.08 201.712C924.312 196.099 935.742 193.293 948.372 193.293C961.001 193.293 972.432 196.099 982.664 201.712C992.895 207.324 1000.97 215.341 1006.88 225.763C1012.8 236.186 1015.76 248.132 1015.76 261.601C1015.76 275.07 1012.72 287.016 1006.64 297.438C1000.57 307.861 992.256 315.958 981.704 321.731C971.313 327.343 959.802 330.149 947.173 330.149ZM947.173 306.337C954.207 306.337 960.762 304.654 966.837 301.286C973.071 297.919 978.107 292.868 981.944 286.134C985.781 279.399 987.699 271.222 987.699 261.601C987.699 251.98 985.861 243.883 982.184 237.308C978.507 230.574 973.631 225.523 967.556 222.156C961.481 218.788 954.926 217.105 947.892 217.105C940.858 217.105 934.303 218.788 928.228 222.156C922.313 225.523 917.597 230.574 914.08 237.308C910.563 243.883 908.804 251.98 908.804 261.601C908.804 275.872 912.401 286.935 919.595 294.792C926.949 302.489 936.142 306.337 947.173 306.337Z" fill="white"/>
<path d="M1070.12 215.181C1074.75 208.767 1081.07 203.556 1089.06 199.547C1097.22 195.378 1106.25 193.293 1116.16 193.293C1127.83 193.293 1138.38 196.099 1147.81 201.712C1157.25 207.324 1164.68 215.341 1170.12 225.763C1175.55 236.026 1178.27 247.811 1178.27 261.12C1178.27 274.428 1175.55 286.374 1170.12 296.957C1164.68 307.38 1157.17 315.557 1147.57 321.49C1138.14 327.262 1127.67 330.149 1116.16 330.149C1105.93 330.149 1096.82 328.144 1088.82 324.136C1080.99 320.127 1074.75 314.996 1070.12 308.743V327.984H1042.78V150H1070.12V215.181ZM1150.45 261.12C1150.45 251.98 1148.53 244.123 1144.7 237.549C1141.02 230.814 1136.06 225.763 1129.83 222.396C1123.75 218.869 1117.2 217.105 1110.17 217.105C1103.29 217.105 1096.74 218.869 1090.5 222.396C1084.43 225.924 1079.47 231.055 1075.63 237.789C1071.96 244.524 1070.12 252.461 1070.12 261.601C1070.12 270.741 1071.96 278.758 1075.63 285.653C1079.47 292.387 1084.43 297.518 1090.5 301.046C1096.74 304.574 1103.29 306.337 1110.17 306.337C1117.2 306.337 1123.75 304.574 1129.83 301.046C1136.06 297.358 1141.02 292.067 1144.7 285.172C1148.53 278.277 1150.45 270.259 1150.45 261.12Z" fill="white"/>
<path d="M1262.62 330.149C1250.15 330.149 1238.88 327.343 1228.8 321.731C1218.73 315.958 1210.82 307.941 1205.06 297.679C1199.31 287.256 1196.43 275.23 1196.43 261.601C1196.43 248.132 1199.39 236.186 1205.3 225.763C1211.22 215.341 1219.29 207.324 1229.52 201.712C1239.76 196.099 1251.19 193.293 1263.82 193.293C1276.44 193.293 1287.88 196.099 1298.11 201.712C1308.34 207.324 1316.41 215.341 1322.33 225.763C1328.24 236.186 1331.2 248.132 1331.2 261.601C1331.2 275.07 1328.16 287.016 1322.09 297.438C1316.01 307.861 1307.7 315.958 1297.15 321.731C1286.76 327.343 1275.25 330.149 1262.62 330.149ZM1262.62 306.337C1269.65 306.337 1276.21 304.654 1282.28 301.286C1288.51 297.919 1293.55 292.868 1297.39 286.134C1301.22 279.399 1303.14 271.222 1303.14 261.601C1303.14 251.98 1301.3 243.883 1297.63 237.308C1293.95 230.574 1289.07 225.523 1283 222.156C1276.92 218.788 1270.37 217.105 1263.34 217.105C1256.3 217.105 1249.75 218.788 1243.67 222.156C1237.76 225.523 1233.04 230.574 1229.52 237.308C1226.01 243.883 1224.25 251.98 1224.25 261.601C1224.25 275.872 1227.84 286.935 1235.04 294.792C1242.39 302.489 1251.59 306.337 1262.62 306.337Z" fill="white"/>
<path d="M1390.12 217.826V291.185C1390.12 296.155 1391.24 299.763 1393.48 302.008C1395.87 304.092 1399.87 305.135 1405.47 305.135H1422.25V327.984H1400.67C1388.36 327.984 1378.93 325.098 1372.37 319.325C1365.82 313.553 1362.54 304.173 1362.54 291.185V217.826H1346.95V195.458H1362.54V162.507H1390.12V195.458H1422.25V217.826H1390.12Z" fill="white"/>
<path d="M1458.48 329.668C1453.52 329.668 1449.37 327.984 1446.01 324.617C1442.65 321.249 1440.97 317.08 1440.97 312.11C1440.97 307.139 1442.65 302.97 1446.01 299.603C1449.37 296.236 1453.52 294.552 1458.48 294.552C1463.27 294.552 1467.35 296.236 1470.71 299.603C1474.07 302.97 1475.74 307.139 1475.74 312.11C1475.74 317.08 1474.07 321.249 1470.71 324.617C1467.35 327.984 1463.27 329.668 1458.48 329.668Z" fill="#00B750"/>
<path d="M1532.63 214.94C1537.26 208.847 1543.58 203.716 1551.57 199.547C1559.57 195.378 1568.6 193.293 1578.67 193.293C1590.18 193.293 1600.65 196.18 1610.08 201.952C1619.68 207.564 1627.19 215.501 1632.63 225.763C1638.06 236.026 1640.78 247.811 1640.78 261.12C1640.78 274.428 1638.06 286.374 1632.63 296.957C1627.19 307.38 1619.68 315.557 1610.08 321.49C1600.65 327.262 1590.18 330.149 1578.67 330.149C1568.6 330.149 1559.65 328.144 1551.81 324.136C1543.98 319.967 1537.58 314.836 1532.63 308.743V391H1505.29V195.458H1532.63V214.94ZM1612.96 261.12C1612.96 251.98 1611.04 244.123 1607.21 237.549C1603.53 230.814 1598.57 225.763 1592.34 222.396C1586.26 218.869 1579.71 217.105 1572.68 217.105C1565.8 217.105 1559.25 218.869 1553.01 222.396C1546.94 225.924 1541.98 231.055 1538.14 237.789C1534.47 244.524 1532.63 252.461 1532.63 261.601C1532.63 270.741 1534.47 278.758 1538.14 285.653C1541.98 292.387 1546.94 297.518 1553.01 301.046C1559.25 304.574 1565.8 306.337 1572.68 306.337C1579.71 306.337 1586.26 304.574 1592.34 301.046C1598.57 297.358 1603.53 292.067 1607.21 285.172C1611.04 278.277 1612.96 270.259 1612.96 261.12Z" fill="#00B750"/>
<path d="M1720.09 261.841L1781 327.984H1744.07L1695.15 270.981V327.984H1667.81V150H1695.15V253.423L1743.11 195.458H1781L1720.09 261.841Z" fill="#00B750"/>
<path d="M137 40V65H149V40H137Z" fill="#00B750"/>
<path d="M8.5 191.5C1.7 191.5 0 196.834 0 199.5V200.5C0.8 204.9 3.66667 206.667 5 207H29.5C35.9 207 39.5 213.334 40.5 216.5L69 317.5C75.8 335.1 89.1667 339.5 95 339.5H218.5C220.333 339.167 224 337.2 224 332C224 326.8 219.333 325.167 217 325H95C87 324 83.1667 315.334 82 311.5C123.833 311.667 209.7 311.9 218.5 311.5C227.3 311.1 232.167 304 233.5 300.5C238.333 284.334 248.4 249.7 250 240.5C251.6 231.3 244.333 228.667 240.5 228.5H61L54 207C47.6 194.6 36 191.5 31 191.5H8.5Z" fill="#00B750"/>
<path d="M164 20.5C164 31.8218 154.598 41 143 41C131.402 41 122 31.8218 122 20.5C122 9.17816 131.402 0 143 0C154.598 0 164 9.17816 164 20.5Z" fill="#00B750"/>
<path d="M123 371.5C123 382.27 114.27 391 103.5 391C92.7304 391 84 382.27 84 371.5C84 360.731 92.7304 352 103.5 352C114.27 352 123 360.731 123 371.5Z" fill="#00B750"/>
<path d="M206 371.5C206 382.27 197.27 391 186.5 391C175.73 391 167 382.27 167 371.5C167 360.731 175.73 352 186.5 352C197.27 352 206 360.731 206 371.5Z" fill="#00B750"/>
<rect x="57.7734" y="73" width="188" height="136" rx="57" fill="black" stroke="#00B750" stroke-width="16"/>
<path d="M106.773 142C112.196 137.269 125.623 133.641 135.773 142" stroke="#00B750" stroke-width="9" stroke-linecap="round"/>
<circle cx="184.273" cy="139.5" r="10.5" fill="#00B750"/>
<rect x="38.7734" y="120" width="23" height="44" rx="11" fill="#00B750"/>
<rect x="242.773" y="119" width="23" height="44" rx="11" fill="#00B750"/>
</svg>
